<?xml version="1.0" encoding="UTF-8" standalone="no"?>
<!-- Created with Inkscape (http://www.inkscape.org/) -->

<svg
   xmlns:dc="http://purl.org/dc/elements/1.1/"
   xmlns:cc="http://creativecommons.org/ns#"
   xmlns:rdf="http://www.w3.org/1999/02/22-rdf-syntax-ns#"
   xmlns:svg="http://www.w3.org/2000/svg"
   xmlns="http://www.w3.org/2000/svg"
   xmlns:sodipodi="http://sodipodi.sourceforge.net/DTD/sodipodi-0.dtd"
   xmlns:inkscape="http://www.inkscape.org/namespaces/inkscape"
   width="242.52519mm"
   height="40.005993mm"
   viewBox="0 0 242.52519 40.005993"
   version="1.1"
   id="svg8"
   inkscape:version="0.92.3 (2405546, 2018-03-11)"
   sodipodi:docname="logo.svg">
  <defs
     id="defs2">
    <inkscape:path-effect
       effect="interpolate"
       id="path-effect1111"
       is_visible="true"
       trajectory="M 0,0 V 0"
       equidistant_spacing="true"
       steps="5" />
    <inkscape:path-effect
       effect="skeletal"
       id="path-effect1109"
       is_visible="true"
       pattern="M 0,0 H 1"
       copytype="repeated_stretched"
       prop_scale="1"
       scale_y_rel="false"
       spacing="0"
       normal_offset="0"
       tang_offset="0"
       prop_units="false"
       vertical_pattern="false"
       fuse_tolerance="0" />
    <inkscape:path-effect
       effect="vonkoch"
       id="path-effect4626"
       is_visible="true"
       ref_path="M 60.570804,61.324772 H 78.270293"
       generator="m 60.570804,80.626405 h 5.89983 m 5.899829,0 h 5.89983"
       similar_only="false"
       nbgenerations="1"
       drawall="true"
       maxComplexity="1000" />
    <inkscape:path-effect
       effect="interpolate"
       id="path-effect4624"
       is_visible="true"
       trajectory="M 0,0 V 0"
       equidistant_spacing="true"
       steps="5" />
    <inkscape:path-effect
       effect="spiro"
       id="path-effect4622"
       is_visible="true" />
    <inkscape:path-effect
       effect="vonkoch"
       id="path-effect4620"
       is_visible="true"
       ref_path="M 60.570804,61.324772 H 78.270293"
       generator="m 60.570804,80.626405 h 5.89983 m 5.899829,0 h 5.89983"
       similar_only="false"
       nbgenerations="1"
       drawall="true"
       maxComplexity="1000" />
    <inkscape:path-effect
       effect="bend_path"
       id="path-effect915"
       is_visible="true"
       bendpath="M 60.570804,61.324772 H 78.270293"
       prop_scale="0.98"
       scale_y_rel="false"
       vertical="false" />
  </defs>
  <sodipodi:namedview
     id="base"
     pagecolor="#ffffff"
     bordercolor="#666666"
     borderopacity="1.0"
     inkscape:pageopacity="0.0"
     inkscape:pageshadow="2"
     inkscape:zoom="0.5"
     inkscape:cx="562.08636"
     inkscape:cy="-71.244704"
     inkscape:document-units="mm"
     inkscape:current-layer="layer1"
     showgrid="false"
     inkscape:window-width="1920"
     inkscape:window-height="995"
     inkscape:window-x="0"
     inkscape:window-y="28"
     inkscape:window-maximized="1"
     showguides="false"
     inkscape:guide-bbox="true"
     fit-margin-top="0"
     fit-margin-left="0"
     fit-margin-right="0"
     fit-margin-bottom="0"
     inkscape:measure-start="151.296,115.665"
     inkscape:measure-end="176.5,115.665">
    <inkscape:grid
       type="xygrid"
       id="grid838"
       originx="-38.231291"
       originy="-223.82312" />
    <sodipodi:guide
       position="9.3937106,30.176881"
       orientation="-0.70710678,-0.70710678"
       id="guide840"
       inkscape:locked="false" />
    <sodipodi:guide
       position="20.001,10.262168"
       orientation="-0.70710678,-0.70710678"
       id="guide842"
       inkscape:locked="false" />
    <sodipodi:guide
       position="14.486937,12.152141"
       orientation="-0.70710678,0.70710678"
       id="guide844"
       inkscape:locked="false" />
    <sodipodi:guide
       position="40.064708,29.216611"
       orientation="-0.70710678,0.70710678"
       id="guide846"
       inkscape:locked="false"
       inkscape:label=""
       inkscape:color="rgb(0,0,255)" />
    <sodipodi:guide
       position="17.497746,25.8467"
       orientation="-0.70710678,-0.70710678"
       id="guide848"
       inkscape:locked="false" />
    <sodipodi:guide
       position="18.297587,17.91411"
       orientation="1,0"
       id="guide850"
       inkscape:locked="false" />
    <sodipodi:guide
       position="21.983525,17.58707"
       orientation="1,0"
       id="guide852"
       inkscape:locked="false" />
    <sodipodi:guide
       position="18.297586,-8.8491578"
       orientation="0,1"
       id="guide858"
       inkscape:locked="false" />
    <sodipodi:guide
       position="0.00099991778,21.710209"
       orientation="1,0"
       id="guide860"
       inkscape:locked="false" />
    <sodipodi:guide
       position="50.933289,11.589891"
       orientation="0.70710678,-0.70710678"
       id="guide862"
       inkscape:locked="false" />
    <sodipodi:guide
       position="35.637067,4.7272712"
       orientation="0.70710678,-0.70710678"
       id="guide866"
       inkscape:locked="false"
       inkscape:label=""
       inkscape:color="rgb(255,0,122)" />
    <sodipodi:guide
       position="52.974433,34.697861"
       orientation="-0.70710678,0.70710678"
       id="guide904"
       inkscape:locked="false"
       inkscape:label=""
       inkscape:color="rgb(0,0,255)" />
    <sodipodi:guide
       position="-0.95387105,-3.8068378"
       orientation="0,1"
       id="guide5234"
       inkscape:locked="false" />
    <sodipodi:guide
       position="34.099177,0.047454425"
       orientation="1,0"
       id="guide5259"
       inkscape:locked="false" />
    <sodipodi:guide
       position="5.9045167,-3.806838"
       orientation="1,0"
       id="guide5357"
       inkscape:locked="false" />
    <sodipodi:guide
       position="5.9045167,-2.9435811"
       orientation="0,1"
       id="guide5359"
       inkscape:locked="false" />
    <sodipodi:guide
       position="20.001,23.280752"
       orientation="1,0"
       id="guide5455"
       inkscape:locked="false"
       inkscape:label=""
       inkscape:color="rgb(0,0,255)" />
    <sodipodi:guide
       position="8.1861296,-1.552702"
       orientation="-0.70710678,0.70710678"
       id="guide6180"
       inkscape:locked="false" />
    <sodipodi:guide
       position="20.001,17.666203"
       orientation="-0.70710678,-0.70710678"
       id="guide6220"
       inkscape:locked="false" />
  </sodipodi:namedview>
  <metadata
     id="metadata5">
    <rdf:RDF>
      <cc:Work
         rdf:about="">
        <dc:format>image/svg+xml</dc:format>
        <dc:type
           rdf:resource="http://purl.org/dc/dcmitype/StillImage" />
        <dc:title></dc:title>
      </cc:Work>
    </rdf:RDF>
  </metadata>
  <g
     inkscape:label="Layer 1"
     inkscape:groupmode="layer"
     id="layer1"
     transform="translate(-38.231289,-33.170893)">
    <path
       style="font-style:normal;font-variant:normal;font-weight:normal;font-stretch:normal;font-size:192px;line-height:1.25;font-family:sans-serif;-inkscape-font-specification:'sans-serif, Normal';font-variant-ligatures:normal;font-variant-caps:normal;font-variant-numeric:normal;font-feature-settings:normal;text-align:start;letter-spacing:0px;word-spacing:0px;writing-mode:lr-tb;text-anchor:start;fill:#000000;fill-opacity:1;stroke:none;stroke-width:0.29350498"
       d="m 38.232289,33.2248 -0.001,39.952085 0.889673,-4e-6 5.108387,-5.04232 -0.09354,-28.165491 14.096484,14.096484 V 46.661518 L 44.741664,33.170893 Z"
       id="path903"
       inkscape:connector-curvature="0"
       sodipodi:nodetypes="ccccccccc" />
    <path
       style="font-style:normal;font-variant:normal;font-weight:normal;font-stretch:normal;font-size:192px;line-height:1.25;font-family:sans-serif;-inkscape-font-specification:'sans-serif, Normal';font-variant-ligatures:normal;font-variant-caps:normal;font-variant-numeric:normal;font-feature-settings:normal;text-align:start;letter-spacing:0px;word-spacing:0px;writing-mode:lr-tb;text-anchor:start;fill:#2e84ff;fill-opacity:1;stroke:none;stroke-width:0.29350498"
       d="m 78.234493,34.060357 9.01e-4,-0.886472 -6.51966,0.0012 -13.483445,13.483445 3.9e-5,7.404036 14.098178,-14.098177 v 0 m 0,8.537742 v 12.633222 l -6.99622,6.99622 H 52.701024 l -5.04232,5.04232 21.066826,-1e-6 9.5052,-9.505201 0.03096,-21.09778"
       id="path823"
       inkscape:connector-curvature="0"
       sodipodi:nodetypes="ccccccccccccccc" />
    <flowRoot
       xml:space="preserve"
       id="flowRoot826"
       style="font-style:normal;font-weight:normal;font-size:40px;line-height:1.25;font-family:sans-serif;letter-spacing:0px;word-spacing:0px;fill:#000000;fill-opacity:1;stroke:none"><flowRegion
         id="flowRegion828"><rect
           id="rect830"
           width="121.78571"
           height="111.78571"
           x="131.42857"
           y="148.23396" /></flowRegion><flowPara
         id="flowPara832" /></flowRoot>    <flowRoot
       xml:space="preserve"
       id="flowRoot842"
       style="font-style:normal;font-weight:normal;font-size:40px;line-height:1.25;font-family:sans-serif;letter-spacing:0px;word-spacing:0px;fill:#000000;fill-opacity:1;stroke:none"><flowRegion
         id="flowRegion844"><rect
           id="rect846"
           width="41.921329"
           height="70.710678"
           x="276.7818"
           y="124.99405" /></flowRegion><flowPara
         id="flowPara848" /></flowRoot>    <g
       aria-label="Michał Junke"
       transform="matrix(0.3126036,0,0,0.3126036,48.608649,37.073553)"
       style="font-style:normal;font-variant:normal;font-weight:bold;font-stretch:normal;font-size:40px;line-height:1.25;font-family:'IBM Plex Sans';-inkscape-font-specification:'IBM Plex Sans, Bold';font-variant-ligatures:normal;font-variant-caps:normal;font-variant-numeric:normal;font-feature-settings:normal;text-align:start;letter-spacing:0px;word-spacing:0px;writing-mode:lr-tb;text-anchor:start;fill:#000000;fill-opacity:1;stroke:none"
       id="flowRoot849">
      <path
         d="m 208.69736,42.912 h -0.288 l -4.896,9.792 -13.056,23.712 -12.768,-23.616 -5.088,-10.56 h -0.288 v 44.64 h -13.728 V 19.872 h 15.456 l 16.416,31.392 h 0.192 l 16.224,-31.392 h 15.552 V 86.88 h -13.728 z"
         style="font-style:normal;font-variant:normal;font-weight:bold;font-stretch:normal;font-size:96px;font-family:'IBM Plex Sans';-inkscape-font-specification:'IBM Plex Sans, Bold';font-variant-ligatures:normal;font-variant-caps:normal;font-variant-numeric:normal;font-feature-settings:normal;text-align:start;writing-mode:lr-tb;text-anchor:start"
         id="path964"
         inkscape:connector-curvature="0" />
      <path
         d="m 243.48386,31.104 q -4.32,0 -6.336,-1.92 -1.92,-2.016 -1.92,-5.088 v -2.112 q 0,-3.072 1.92,-4.992 2.016,-2.016 6.336,-2.016 4.32,0 6.24,2.016 2.016,1.92 2.016,4.992 v 2.112 q 0,3.072 -2.016,5.088 -1.92,1.92 -6.24,1.92 z m -7.104,5.376 h 14.208 v 50.4 h -14.208 z"
         style="font-style:normal;font-variant:normal;font-weight:bold;font-stretch:normal;font-size:96px;font-family:'IBM Plex Sans';-inkscape-font-specification:'IBM Plex Sans, Bold';font-variant-ligatures:normal;font-variant-caps:normal;font-variant-numeric:normal;font-feature-settings:normal;text-align:start;writing-mode:lr-tb;text-anchor:start"
         id="path966"
         inkscape:connector-curvature="0" />
      <path
         d="m 284.10686,88.032 q -5.664,0 -10.08,-1.824 -4.416,-1.92 -7.392,-5.28 -2.976,-3.456 -4.512,-8.352 -1.536,-4.896 -1.536,-10.944 0,-6.048 1.536,-10.848 1.536,-4.896 4.512,-8.352 2.976,-3.456 7.392,-5.28 4.416,-1.824 10.08,-1.824 7.68,0 12.768,3.456 5.184,3.456 7.392,9.696 l -11.52,4.992 q -0.672,-2.88 -2.784,-4.896 -2.112,-2.016 -5.856,-2.016 -4.32,0 -6.528,2.88 -2.208,2.784 -2.208,7.584 v 9.408 q 0,4.8 2.208,7.584 2.208,2.784 6.528,2.784 3.84,0 6.048,-2.016 2.304,-2.112 3.36,-5.472 l 11.04,4.8 q -2.496,7.2 -7.776,10.56 -5.184,3.36 -12.672,3.36 z"
         style="font-style:normal;font-variant:normal;font-weight:bold;font-stretch:normal;font-size:96px;font-family:'IBM Plex Sans';-inkscape-font-specification:'IBM Plex Sans, Bold';font-variant-ligatures:normal;font-variant-caps:normal;font-variant-numeric:normal;font-feature-settings:normal;text-align:start;writing-mode:lr-tb;text-anchor:start"
         id="path968"
         inkscape:connector-curvature="0" />
      <path
         d="m 313.44236,15.84 h 14.208 v 29.184 h 0.576 q 1.344,-3.936 4.704,-6.816 3.36,-2.88 9.312,-2.88 7.776,0 11.712,5.184 4.032,5.184 4.032,14.784 V 86.88 h -14.208 V 56.448 q 0,-4.896 -1.536,-7.2 -1.536,-2.4 -5.472,-2.4 -1.728,0 -3.36,0.48 -1.632,0.384 -2.976,1.344 -1.248,0.96 -2.016,2.4 -0.768,1.344 -0.768,3.168 v 32.64 h -14.208 z"
         style="font-style:normal;font-variant:normal;font-weight:bold;font-stretch:normal;font-size:96px;font-family:'IBM Plex Sans';-inkscape-font-specification:'IBM Plex Sans, Bold';font-variant-ligatures:normal;font-variant-caps:normal;font-variant-numeric:normal;font-feature-settings:normal;text-align:start;writing-mode:lr-tb;text-anchor:start"
         id="path970"
         inkscape:connector-curvature="0" />
      <path
         d="m 407.87786,86.88 q -3.84,0 -6.432,-2.4 -2.496,-2.4 -3.168,-6.432 h -0.576 q -1.152,4.896 -5.088,7.488 -3.936,2.496 -9.696,2.496 -7.584,0 -11.616,-4.032 -4.032,-4.032 -4.032,-10.656 0,-7.968 5.76,-11.808 5.856,-3.936 15.84,-3.936 h 7.968 v -3.168 q 0,-3.648 -1.92,-5.76 -1.92,-2.208 -6.432,-2.208 -4.224,0 -6.72,1.824 -2.496,1.824 -4.128,4.128 l -8.448,-7.488 q 3.072,-4.512 7.68,-7.008 4.704,-2.592 12.672,-2.592 10.752,0 16.128,4.704 5.376,4.704 5.376,13.728 v 22.08 h 4.704 v 11.04 z m -19.68,-8.736 q 3.552,0 6.048,-1.536 2.592,-1.536 2.592,-4.992 v -5.952 h -6.912 q -8.352,0 -8.352,5.664 v 1.44 q 0,2.784 1.728,4.128 1.728,1.248 4.896,1.248 z"
         style="font-style:normal;font-variant:normal;font-weight:bold;font-stretch:normal;font-size:96px;font-family:'IBM Plex Sans';-inkscape-font-specification:'IBM Plex Sans, Bold';font-variant-ligatures:normal;font-variant-caps:normal;font-variant-numeric:normal;font-feature-settings:normal;text-align:start;writing-mode:lr-tb;text-anchor:start"
         id="path972"
         inkscape:connector-curvature="0" />
      <path
         d="m 446.31236,86.88 h -6.432 q -7.296,0 -10.752,-3.552 -3.36,-3.552 -3.36,-10.272 V 58.56 l -7.392,2.4 V 50.496 l 7.392,-2.4 V 15.84 h 14.208 v 27.648 l 9.984,-3.264 v 10.464 l -9.984,3.264 V 75.84 h 6.336 z"
         style="font-style:normal;font-variant:normal;font-weight:bold;font-stretch:normal;font-size:96px;font-family:'IBM Plex Sans';-inkscape-font-specification:'IBM Plex Sans, Bold';font-variant-ligatures:normal;font-variant-caps:normal;font-variant-numeric:normal;font-feature-settings:normal;text-align:start;writing-mode:lr-tb;text-anchor:start"
         id="path974"
         inkscape:connector-curvature="0" />
      <path
         d="m 518.09936,19.872 v 47.616 q 0,4.608 -1.536,8.448 -1.44,3.744 -4.32,6.432 -2.88,2.592 -7.008,4.128 -4.032,1.44 -9.216,1.44 -4.992,0 -8.832,-1.344 -3.744,-1.344 -6.528,-3.84 -2.688,-2.496 -4.416,-5.952 -1.728,-3.456 -2.4,-7.68 l 13.632,-2.688 q 1.632,8.736 8.352,8.736 3.168,0 5.376,-2.016 2.304,-2.016 2.304,-6.336 V 31.584 h -20.352 V 19.872 Z"
         style="font-style:normal;font-variant:normal;font-weight:bold;font-stretch:normal;font-size:96px;font-family:'IBM Plex Sans';-inkscape-font-specification:'IBM Plex Sans, Bold';font-variant-ligatures:normal;font-variant-caps:normal;font-variant-numeric:normal;font-feature-settings:normal;text-align:start;writing-mode:lr-tb;text-anchor:start"
         id="path976"
         inkscape:connector-curvature="0" />
      <path
         d="m 561.45236,78.432 h -0.48 q -0.672,1.92 -1.824,3.648 -1.056,1.728 -2.784,3.072 -1.728,1.344 -4.128,2.112 -2.304,0.768 -5.376,0.768 -7.776,0 -11.808,-5.088 -3.936,-5.184 -3.936,-14.784 V 36.48 h 14.208 v 30.432 q 0,4.608 1.632,7.104 1.632,2.496 5.568,2.496 1.632,0 3.264,-0.48 1.632,-0.48 2.88,-1.344 1.248,-0.96 2.016,-2.304 0.768,-1.344 0.768,-3.168 V 36.48 h 14.208 v 50.4 h -14.208 z"
         style="font-style:normal;font-variant:normal;font-weight:bold;font-stretch:normal;font-size:96px;font-family:'IBM Plex Sans';-inkscape-font-specification:'IBM Plex Sans, Bold';font-variant-ligatures:normal;font-variant-caps:normal;font-variant-numeric:normal;font-feature-settings:normal;text-align:start;writing-mode:lr-tb;text-anchor:start"
         id="path978"
         inkscape:connector-curvature="0" />
      <path
         d="m 588.87986,86.88 v -50.4 h 14.208 v 8.544 h 0.576 q 1.344,-3.936 4.704,-6.816 3.36,-2.88 9.312,-2.88 7.776,0 11.712,5.184 4.032,5.184 4.032,14.784 V 86.88 h -14.208 V 56.448 q 0,-4.896 -1.536,-7.2 -1.536,-2.4 -5.472,-2.4 -1.728,0 -3.36,0.48 -1.632,0.384 -2.976,1.344 -1.248,0.96 -2.016,2.4 -0.768,1.344 -0.768,3.168 v 32.64 z"
         style="font-style:normal;font-variant:normal;font-weight:bold;font-stretch:normal;font-size:96px;font-family:'IBM Plex Sans';-inkscape-font-specification:'IBM Plex Sans, Bold';font-variant-ligatures:normal;font-variant-caps:normal;font-variant-numeric:normal;font-feature-settings:normal;text-align:start;writing-mode:lr-tb;text-anchor:start"
         id="path980"
         inkscape:connector-curvature="0" />
      <path
         d="m 646.06736,15.84 h 14.208 v 41.952 h 0.576 l 6.24,-9.312 10.08,-12 h 15.744 l -16.8,19.296 18.72,31.104 h -16.896 l -11.328,-21.312 -6.336,7.104 V 86.88 h -14.208 z"
         style="font-style:normal;font-variant:normal;font-weight:bold;font-stretch:normal;font-size:96px;font-family:'IBM Plex Sans';-inkscape-font-specification:'IBM Plex Sans, Bold';font-variant-ligatures:normal;font-variant-caps:normal;font-variant-numeric:normal;font-feature-settings:normal;text-align:start;writing-mode:lr-tb;text-anchor:start"
         id="path982"
         inkscape:connector-curvature="0" />
      <path
         d="m 719.77886,88.032 q -5.76,0 -10.272,-1.824 -4.512,-1.92 -7.68,-5.28 -3.072,-3.456 -4.704,-8.352 -1.536,-4.896 -1.536,-10.944 0,-5.952 1.536,-10.752 1.536,-4.896 4.512,-8.352 3.072,-3.456 7.488,-5.28 4.416,-1.92 10.08,-1.92 6.24,0 10.656,2.112 4.512,2.112 7.296,5.664 2.88,3.552 4.128,8.256 1.344,4.608 1.344,9.696 v 4.224 h -32.352 v 0.768 q 0,4.992 2.688,7.968 2.688,2.88 8.448,2.88 4.416,0 7.2,-1.728 2.784,-1.824 5.184,-4.32 l 7.104,8.832 q -3.36,3.936 -8.832,6.144 -5.376,2.208 -12.288,2.208 z m -0.288,-42.24 q -4.32,0 -6.816,2.88 -2.4,2.784 -2.4,7.488 v 0.768 h 17.664 v -0.864 q 0,-4.608 -2.112,-7.392 -2.016,-2.88 -6.336,-2.88 z"
         style="font-style:normal;font-variant:normal;font-weight:bold;font-stretch:normal;font-size:96px;font-family:'IBM Plex Sans';-inkscape-font-specification:'IBM Plex Sans, Bold';font-variant-ligatures:normal;font-variant-caps:normal;font-variant-numeric:normal;font-feature-settings:normal;text-align:start;writing-mode:lr-tb;text-anchor:start"
         id="path984"
         inkscape:connector-curvature="0" />
    </g>
  </g>
</svg>
